<?xml version="1.0" encoding="UTF-8"?>
<svg width="83px" height="83px" viewBox="0 0 83 83" version="1.1" xmlns="http://www.w3.org/2000/svg" xmlns:xlink="http://www.w3.org/1999/xlink">
    <!-- Generator: Sketch 57.1 (83088) - https://sketch.com -->
    <title>Group 2</title>
    <desc>Created with Sketch.</desc>
    <defs>
        <polygon id="path-1" points="0.711 0.503 8.71 0.503 8.71 8.502 0.711 8.502"></polygon>
        <polygon id="path-3" points="0.711 0.503 8.71 0.503 8.71 8.502 0.711 8.502"></polygon>
        <polygon id="path-5" points="0.711 0.503 8.71 0.503 8.71 8.502 0.711 8.502"></polygon>
        <polygon id="path-7" points="0.711 0.503 8.71 0.503 8.71 8.502 0.711 8.502"></polygon>
        <polygon id="path-9" points="0.71 0.503 8.71 0.503 8.71 8.502 0.71 8.502"></polygon>
        <polygon id="path-11" points="0.711 0.503 8.71 0.503 8.71 8.502 0.711 8.502"></polygon>
        <polygon id="path-13" points="0.711 0.503 8.71 0.503 8.71 8.502 0.711 8.502"></polygon>
        <polygon id="path-15" points="0.711 0.503 8.71 0.503 8.71 8.502 0.711 8.502"></polygon>
        <polygon id="path-17" points="0.711 0.503 8.71 0.503 8.71 8.502 0.711 8.502"></polygon>
        <polygon id="path-19" points="0.711 0.502 8.71 0.502 8.71 8.502 0.711 8.502"></polygon>
        <polygon id="path-21" points="0.711 0.502 8.71 0.502 8.71 8.502 0.711 8.502"></polygon>
        <polygon id="path-23" points="0.711 0.502 8.71 0.502 8.71 8.502 0.711 8.502"></polygon>
        <polygon id="path-25" points="0.711 0.502 8.71 0.502 8.71 8.502 0.711 8.502"></polygon>
        <polygon id="path-27" points="0.711 0.502 8.71 0.502 8.71 8.502 0.711 8.502"></polygon>
        <polygon id="path-29" points="0.711 0.502 8.71 0.502 8.71 8.502 0.711 8.502"></polygon>
    </defs>
    <g id="Logos" stroke="none" stroke-width="1" fill="none" fill-rule="evenodd">
        <g id="Artboard-5" transform="translate(-459.000000, -35.000000)">
            <g id="Group-2" transform="translate(459.000000, 35.283100)">
                <g id="Group">
                    <polygon id="Fill-167" fill="#37B29A" points="32.711 81.9999 40.711 81.9999 40.711 74.0009 32.711 74.0009"></polygon>
                    <g id="Group-170" transform="translate(32.000000, 73.497900)">
                        <mask id="mask-2" fill="white">
                            <use xlink:href="#path-1"></use>
                        </mask>
                        <g id="Clip-169"></g>
                        <polygon id="Stroke-168" stroke="#37B29A" stroke-width="2" mask="url(#mask-2)" points="0.71 8.502 8.71 8.502 8.71 0.502 0.71 0.502"></polygon>
                    </g>
                    <polygon id="Fill-171" fill="#37B29A" points="40.711 81.9999 48.711 81.9999 48.711 74.0009 40.711 74.0009"></polygon>
                    <g id="Group-174" transform="translate(40.000000, 73.497900)">
                        <mask id="mask-4" fill="white">
                            <use xlink:href="#path-3"></use>
                        </mask>
                        <g id="Clip-173"></g>
                        <polygon id="Stroke-172" stroke="#37B29A" stroke-width="2" mask="url(#mask-4)" points="0.71 8.502 8.71 8.502 8.71 0.502 0.71 0.502"></polygon>
                    </g>
                    <polygon id="Fill-175" fill="#37B29A" points="48.711 81.9999 56.711 81.9999 56.711 74.0009 48.711 74.0009"></polygon>
                    <g id="Group-178" transform="translate(48.000000, 73.497900)">
                        <mask id="mask-6" fill="white">
                            <use xlink:href="#path-5"></use>
                        </mask>
                        <g id="Clip-177"></g>
                        <polygon id="Stroke-176" stroke="#37B29A" stroke-width="2" mask="url(#mask-6)" points="0.71 8.502 8.71 8.502 8.71 0.502 0.71 0.502"></polygon>
                    </g>
                    <polygon id="Fill-179" fill="#37B29A" points="56.711 81.9999 64.71 81.9999 64.71 74.0009 56.711 74.0009"></polygon>
                    <g id="Group-182" transform="translate(56.000000, 73.497900)">
                        <mask id="mask-8" fill="white">
                            <use xlink:href="#path-7"></use>
                        </mask>
                        <g id="Clip-181"></g>
                        <polygon id="Stroke-180" stroke="#37B29A" stroke-width="2" mask="url(#mask-8)" points="0.71 8.502 8.71 8.502 8.71 0.502 0.71 0.502"></polygon>
                    </g>
                    <polygon id="Fill-183" fill="#37B29A" points="0.71 50.0009 8.71 50.0009 8.71 42.0009 0.71 42.0009"></polygon>
                    <g id="Group-186" transform="translate(0.000000, 41.497900)">
                        <mask id="mask-10" fill="white">
                            <use xlink:href="#path-9"></use>
                        </mask>
                        <g id="Clip-185"></g>
                        <polygon id="Stroke-184" stroke="#37B29A" stroke-width="2" mask="url(#mask-10)" points="0.71 8.502 8.71 8.502 8.71 0.502 0.71 0.502"></polygon>
                    </g>
                    <polygon id="Fill-187" fill="#37B29A" points="0.71 41.9999 8.71 41.9999 8.71 33.9999 0.71 33.9999"></polygon>
                    <polygon id="Fill-190" fill="#37B29A" points="0.71 33.9999 8.71 33.9999 8.71 25.9999 0.71 25.9999"></polygon>
                    <polygon id="Fill-193" fill="#37B29A" points="0.71 25.9999 8.71 25.9999 8.71 17.9999 0.71 17.9999"></polygon>
                    <polygon id="Fill-196" fill="#37B29A" points="56.711 74.0009 64.71 74.0009 64.71 66.0009 56.711 66.0009"></polygon>
                    <g id="Group-199" transform="translate(56.000000, 65.497900)">
                        <mask id="mask-12" fill="white">
                            <use xlink:href="#path-11"></use>
                        </mask>
                        <g id="Clip-198"></g>
                        <polygon id="Stroke-197" stroke="#37B29A" stroke-width="2" mask="url(#mask-12)" points="0.71 8.502 8.71 8.502 8.71 0.502 0.71 0.502"></polygon>
                    </g>
                    <polygon id="Fill-200" fill="#37B29A" points="56.711 66.0009 64.71 66.0009 64.71 58.0009 56.711 58.0009"></polygon>
                    <g id="Group-203" transform="translate(56.000000, 57.497900)">
                        <mask id="mask-14" fill="white">
                            <use xlink:href="#path-13"></use>
                        </mask>
                        <g id="Clip-202"></g>
                        <polygon id="Stroke-201" stroke="#37B29A" stroke-width="2" mask="url(#mask-14)" points="0.71 8.502 8.71 8.502 8.71 0.502 0.71 0.502"></polygon>
                    </g>
                    <polygon id="Fill-204" fill="#37B29A" points="56.711 58.0009 64.71 58.0009 64.71 50.0009 56.711 50.0009"></polygon>
                    <g id="Group-207" transform="translate(56.000000, 49.497900)">
                        <mask id="mask-16" fill="white">
                            <use xlink:href="#path-15"></use>
                        </mask>
                        <g id="Clip-206"></g>
                        <polygon id="Stroke-205" stroke="#37B29A" stroke-width="2" mask="url(#mask-16)" points="0.71 8.502 8.71 8.502 8.71 0.502 0.71 0.502"></polygon>
                    </g>
                    <polygon id="Fill-208" fill="#37B29A" points="56.711 50.0009 64.71 50.0009 64.71 42.0009 56.711 42.0009"></polygon>
                    <g id="Group-211" transform="translate(56.000000, 41.497900)">
                        <mask id="mask-18" fill="white">
                            <use xlink:href="#path-17"></use>
                        </mask>
                        <g id="Clip-210"></g>
                        <polygon id="Stroke-209" stroke="#37B29A" stroke-width="2" mask="url(#mask-18)" points="0.71 8.502 8.71 8.502 8.71 0.502 0.71 0.502"></polygon>
                    </g>
                    <polygon id="Fill-212" fill="#37B29A" points="56.711 41.9999 64.71 41.9999 64.71 33.9999 56.711 33.9999"></polygon>
                    <g id="Group-215" transform="translate(56.000000, 33.497900)">
                        <mask id="mask-20" fill="white">
                            <use xlink:href="#path-19"></use>
                        </mask>
                        <g id="Clip-214"></g>
                        <polygon id="Stroke-213" stroke="#37B29A" stroke-width="2" mask="url(#mask-20)" points="0.71 8.502 8.71 8.502 8.71 0.502 0.71 0.502"></polygon>
                    </g>
                    <polygon id="Fill-216" fill="#37B29A" points="56.711 33.9999 64.71 33.9999 64.71 25.9999 56.711 25.9999"></polygon>
                    <g id="Group-219" transform="translate(56.000000, 25.497900)">
                        <mask id="mask-22" fill="white">
                            <use xlink:href="#path-21"></use>
                        </mask>
                        <g id="Clip-218"></g>
                        <polygon id="Stroke-217" stroke="#37B29A" stroke-width="2" mask="url(#mask-22)" points="0.71 8.502 8.71 8.502 8.71 0.502 0.71 0.502"></polygon>
                    </g>
                    <polygon id="Fill-220" fill="#37B29A" points="8.71 25.9999 16.71 25.9999 16.71 17.9999 8.71 17.9999"></polygon>
                    <polygon id="Fill-223" fill="#37B29A" points="16.71 25.9999 24.71 25.9999 24.71 17.9999 16.71 17.9999"></polygon>
                    <polygon id="Fill-226" fill="#37B29A" points="24.71 25.9999 32.71 25.9999 32.71 17.9999 24.71 17.9999"></polygon>
                    <polygon id="Fill-229" fill="#37B29A" points="32.711 25.9999 40.711 25.9999 40.711 17.9999 32.711 17.9999"></polygon>
                    <g id="Group-232" transform="translate(32.000000, 17.497900)">
                        <mask id="mask-24" fill="white">
                            <use xlink:href="#path-23"></use>
                        </mask>
                        <g id="Clip-231"></g>
                        <polygon id="Stroke-230" stroke="#37B29A" stroke-width="2" mask="url(#mask-24)" points="0.71 8.502 8.71 8.502 8.71 0.502 0.71 0.502"></polygon>
                    </g>
                    <polygon id="Fill-233" fill="#37B29A" points="40.711 25.9999 48.711 25.9999 48.711 17.9999 40.711 17.9999"></polygon>
                    <g id="Group-236" transform="translate(40.000000, 17.497900)">
                        <mask id="mask-26" fill="white">
                            <use xlink:href="#path-25"></use>
                        </mask>
                        <g id="Clip-235"></g>
                        <polygon id="Stroke-234" stroke="#37B29A" stroke-width="2" mask="url(#mask-26)" points="0.71 8.502 8.71 8.502 8.71 0.502 0.71 0.502"></polygon>
                    </g>
                    <polygon id="Fill-237" fill="#37B29A" points="48.711 25.9999 56.711 25.9999 56.711 17.9999 48.711 17.9999"></polygon>
                    <g id="Group-240" transform="translate(48.000000, 17.497900)">
                        <mask id="mask-28" fill="white">
                            <use xlink:href="#path-27"></use>
                        </mask>
                        <g id="Clip-239"></g>
                        <polygon id="Stroke-238" stroke="#37B29A" stroke-width="2" mask="url(#mask-28)" points="0.71 8.502 8.71 8.502 8.71 0.502 0.71 0.502"></polygon>
                    </g>
                    <polygon id="Fill-241" fill="#37B29A" points="56.711 25.9999 64.71 25.9999 64.71 17.9999 56.711 17.9999"></polygon>
                    <g id="Group-244" transform="translate(56.000000, 17.497900)">
                        <mask id="mask-30" fill="white">
                            <use xlink:href="#path-29"></use>
                        </mask>
                        <g id="Clip-243"></g>
                        <polygon id="Stroke-242" stroke="#37B29A" stroke-width="2" mask="url(#mask-30)" points="0.71 8.502 8.71 8.502 8.71 0.502 0.71 0.502"></polygon>
                    </g>
                    <polygon id="Fill-245" fill="#76C2AB" points="24.7104 49.9995 16.7104 49.9995 8.7104 49.9995 0.7104 49.9995 0.7104 57.9995 8.7104 57.9995 16.7104 57.9995 24.7104 57.9995 24.7104 65.9995 24.7104 73.9995 24.7104 81.9995 32.7104 81.9995 32.7104 73.9995 32.7104 65.9995 32.7104 57.9995 32.7104 49.9995"></polygon>
                    <polygon id="Fill-246" fill="#7372A7" points="74.7108 0 66.7108 0 58.7108 0 50.7108 0 50.7108 8 58.7108 8 66.7108 8 74.7108 8 74.7108 16 74.7108 24 74.7108 32 82.7098 32 82.7098 24 82.7098 16 82.7098 8 82.7098 0"></polygon>
                </g>
            </g>
        </g>
    </g>
</svg>